<svg width="317" height="186" viewBox="0 0 317 186" fill="none" xmlns="http://www.w3.org/2000/svg">
<path d="M0 152L2.38496 158.929H314.629L316.423 152H0Z" fill="#CCCCCC"/>
<path opacity="0.16" d="M119.072 142.001L43 0C43 0 200.366 27.8481 273.061 3.24843L208.169 142.026L119.072 142.001Z" fill="#CCCCCC"/>
<path d="M32.5361 155.759H25.371V185.648H32.5361V155.759Z" fill="#CCCCCC"/>
<path d="M292.841 155.759H285.676V185.648H292.841V155.759Z" fill="#CCCCCC"/>
<path d="M95.5627 180.523C95.5627 180.523 96.0767 120.962 100.482 107.752C100.482 107.752 179.987 99.9856 214.687 107.752C214.687 107.752 219.606 125.624 220.901 180.523C220.901 180.523 223.471 168.701 225.219 165.011C225.334 164.767 225.51 164.557 225.73 164.4C225.949 164.244 226.205 164.146 226.473 164.116C229.742 163.741 242.063 162.472 243.903 164.312C243.903 164.312 245.121 168.768 244.931 170.284C244.931 170.284 237.55 172.721 233.397 172.695C233.044 172.693 232.696 172.785 232.39 172.96C232.083 173.135 231.828 173.387 231.649 173.692L224.967 185.17H91.1166L84.7944 174.078C84.5899 173.72 84.3069 173.414 83.9668 173.181C83.6267 172.949 83.2384 172.797 82.831 172.736C80.1684 172.356 74.1341 171.395 71.4562 170.233C71.4562 170.233 71.3431 164.769 73.4351 163.721C73.4351 163.721 85.6682 163.016 89.77 163.751C90.1176 163.818 90.4422 163.973 90.7124 164.202C90.9825 164.43 91.189 164.725 91.3119 165.057C93.0676 170.113 94.4876 175.28 95.5627 180.523Z" fill="#D1D3D4"/>
<path d="M124.65 101.908C124.65 101.908 125.632 83.615 130.211 80.6852C130.472 80.5277 130.766 80.436 131.07 80.418C135.053 80.0736 168.88 77.3854 184.834 80.4539C185.513 80.5318 186.148 80.8296 186.641 81.302C187.135 81.7744 187.461 82.3954 187.569 83.0702C187.569 83.0702 190.951 96.2078 191.758 100.602L124.65 101.908Z" fill="#D1D3D4"/>
<path d="M238.393 152.295L236.214 130.979L255.488 130.455L253.571 152.295H238.393Z" fill="#2F2E41"/>
<path opacity="0.2" d="M251.217 135.425C251.217 135.425 239.395 135.158 236.589 134.639L236.214 130.979L255.488 130.465L253.571 152.305H250.955L251.217 135.425Z" fill="black"/>
<path d="M232.256 98.3152L238.434 127.479H241.369L235.494 98.3152H232.256Z" fill="#CCCCCC"/>
<path opacity="0.2" d="M231.295 98.7058L232.256 98.3152L238.434 127.479H237.468L231.295 98.7058Z" fill="black"/>
<path opacity="0.2" d="M242.078 127.423L239.95 110.199L243.039 109.942L244.936 127.34L242.078 127.423Z" fill="black"/>
<path opacity="0.2" d="M242.227 125.305H244.71L244.936 127.34L242.078 127.423L241.816 125.305H242.227Z" fill="black"/>
<path opacity="0.2" d="M240.146 111.787L243.209 111.53L243.039 109.942L239.95 110.199L240.146 111.787Z" fill="black"/>
<path opacity="0.2" d="M239.95 107.562L240.243 110.173L242.68 109.973L242.325 107.361C241.935 107.231 241.519 107.195 241.112 107.259C240.713 107.307 240.322 107.409 239.95 107.562Z" fill="black"/>
<path opacity="0.2" d="M247.465 113.92L247.773 127.237L249.973 127.145L250.354 113.92H247.465Z" fill="black"/>
<path opacity="0.2" d="M247.845 111.36L247.465 113.92H250.354L249.973 111.36H247.845Z" fill="black"/>
<path opacity="0.2" d="M247.732 125.305H250.025L249.973 127.145L247.773 127.238L247.732 125.305Z" fill="black"/>
<path opacity="0.2" d="M252.554 112.373L251.526 127.073L254.311 126.939L256.285 112.172C256.285 112.172 253.669 111.257 252.554 112.373Z" fill="black"/>
<path opacity="0.2" d="M251.664 125.305H254.543L254.327 126.939L251.541 127.073L251.664 125.305Z" fill="black"/>
<path opacity="0.2" d="M0 152.295L2.38496 159.223H314.629L316.423 152.295H0Z" fill="black"/>
<path d="M86.4598 152.295H16.1961L15.2246 149.375H87.4621L86.4598 152.295Z" fill="#2F2E41"/>
<path d="M17.3115 146.137L18.0208 149.375H85.6529V146.137C85.6529 146.137 64.3887 135.23 52.4434 147.052C52.4434 147.052 45.2474 136.623 36.1445 140.267L17.3115 146.137Z" fill="#CCCCCC"/>
<path d="M52.2789 147.108C51.1761 143.821 49.0279 140.985 46.1623 139.034C45.1385 138.363 43.9809 137.924 42.7702 137.747C41.5594 137.569 40.3245 137.658 39.1513 138.006L19.3881 143.778L19.2853 143.439L39.0537 137.677C40.2747 137.31 41.5612 137.214 42.8229 137.397C44.0847 137.58 45.2911 138.037 46.3576 138.736C49.2846 140.719 51.4803 143.608 52.6078 146.959L52.2789 147.108Z" fill="#CCCCCC"/>
<path d="M53.3069 145.417L52.9985 145.243C56.2213 139.64 62.3173 137.152 70.6236 138.047C74.6324 138.536 78.5549 139.573 82.2811 141.131L82.1372 141.455C81.9264 141.347 60.9347 132.172 53.3069 145.417Z" fill="#CCCCCC"/>
<path d="M234.908 127.428L235.34 131.704C235.34 131.704 250.169 132.048 256.624 131.092L257.061 126.816C257.061 126.816 240.228 127.752 234.908 127.428Z" fill="#2F2E41"/>
<path d="M108.51 99.4665L114.2 152.295H203.287L207.43 99.4665C207.43 99.4665 158.749 96.876 108.51 99.4665Z" fill="#2F2E41"/>
<path opacity="0.2" d="M157.967 131.272C161.263 131.272 163.935 128.601 163.935 125.305C163.935 122.009 161.263 119.337 157.967 119.337C154.672 119.337 152 122.009 152 125.305C152 128.601 154.672 131.272 157.967 131.272Z" fill="black"/>
</svg>
