<svg width="445" height="351" viewBox="0 0 445 351" fill="none" xmlns="http://www.w3.org/2000/svg">
<path d="M179.103 126.776C179.103 126.776 186.191 145.974 194.138 144.694C194.138 144.694 195.32 132.497 179.103 126.776Z" fill="#0071F2"/>
<path opacity="0.49" d="M222.634 115.299C251.972 115.299 275.755 91.5155 275.755 62.1776C275.755 32.8396 251.972 9.05652 222.634 9.05652C193.295 9.05652 169.512 32.8396 169.512 62.1776C169.512 91.5155 193.295 115.299 222.634 115.299Z" fill="#CCCCCC"/>
<path d="M251.896 144.946L248.457 140.793C248.318 142.376 247.198 145.501 246.493 147.341C246.043 148.493 245.762 149.705 245.661 150.939C244.89 161.656 251.695 172.336 251.695 172.336C223.903 180.231 197.391 171.822 197.391 171.822C199.565 164.915 201.019 157.801 201.729 150.595L196.26 139.657L194.138 144.668C193.834 131.304 179.103 126.75 179.103 126.75C179.103 126.75 202.233 101.359 241.513 111.505C244.963 112.406 248.218 113.93 251.119 116.003C255.596 119.184 262.71 124.443 267.49 129.027C267.49 129.053 268.822 142.314 251.896 144.946Z" fill="#0071F2"/>
<path opacity="0.2" d="M205.43 111.588C205.43 111.588 210.025 118.732 220.074 119.76C230.123 120.788 235.905 118.398 241.184 111.588C241.184 111.588 227.393 105.631 205.43 111.588Z" fill="white"/>
<path d="M222.593 104.952C214.132 104.952 205.861 102.443 198.826 97.7422C191.792 93.0414 186.309 86.36 183.072 78.5431C179.835 70.7262 178.989 62.1249 180.641 53.8271C182.292 45.5292 186.368 37.9076 192.351 31.9261C198.335 25.9446 205.958 21.872 214.257 20.2232C222.556 18.5745 231.157 19.4238 238.973 22.6637C246.788 25.9035 253.468 31.3884 258.166 38.4247C262.865 45.4609 265.371 53.7324 265.368 62.1931C265.351 73.5311 260.839 84.3999 252.82 92.4156C244.801 100.431 233.931 104.94 222.593 104.952V104.952ZM222.593 20.1125C214.273 20.1125 206.141 22.5792 199.224 27.2007C192.306 31.8222 186.915 38.391 183.73 46.0765C180.546 53.7619 179.712 62.219 181.334 70.3785C182.956 78.5379 186.961 86.0332 192.842 91.9167C198.724 97.8002 206.218 101.808 214.376 103.433C222.535 105.057 230.993 104.227 238.68 101.045C246.366 97.8637 252.937 92.4745 257.561 85.559C262.185 78.6434 264.655 70.5121 264.658 62.1931C264.65 51.0378 260.216 40.3415 252.329 32.4521C244.443 24.5627 233.748 20.1248 222.593 20.1125Z" fill="white"/>
<path d="M214.641 40.518C214.641 40.518 223.035 35.0594 236.871 32.7413C237.44 32.6465 238.022 32.6865 238.572 32.8579C239.122 33.0293 239.624 33.3274 240.038 33.7282C245.095 38.6522 261.43 58.2713 250.163 97.7664C250.163 97.7664 257.303 96.4044 257.457 100.049C257.457 100.049 258.064 102.171 254.723 102.932C254.723 102.932 258.516 104.757 253.813 106.576C253.813 106.576 243.584 109.552 229.968 106.972C224.952 106.012 219.837 105.681 214.739 105.985C211.261 106.15 207.799 106.55 204.376 107.183C204.376 107.183 188.201 111.588 187.749 104.299C187.749 104.299 187.749 100.655 196.101 100.804C196.101 100.804 185.872 72.3393 197.345 42.5072C197.625 41.7922 198.162 41.2075 198.851 40.8675C202.027 39.3153 211.254 35.3935 214.641 40.518Z" fill="#2F2E41"/>
<path d="M217.524 93.5157L216.157 110.678H231.649L228.76 93.5157H217.524Z" fill="#F9B499"/>
<path d="M209.321 112.806L219.195 109.768H228.005L237.874 112.194C237.874 112.194 227.244 121.461 209.321 112.806Z" fill="#F9B499"/>
<path d="M251.896 144.946C258.377 130.261 267.49 129.048 267.49 129.048L263.79 125.733C252.404 129.048 250.169 142.859 250.169 142.859L251.896 144.946Z" fill="#0071F2"/>
<path d="M182.984 123.24C182.984 123.24 196.163 129.033 196.25 139.688L194.127 144.699C194.127 144.699 194.729 132.636 179.093 126.781C179.103 126.776 179.992 125.517 182.984 123.24Z" fill="#0071F2"/>
<path opacity="0.2" d="M188.412 132.204C188.412 132.204 200.059 129.356 202.084 126.925C202.084 126.925 203.261 133.124 197.915 142.987L196.26 139.682L194.138 144.694C194.062 142.336 193.517 140.016 192.534 137.872C191.551 135.727 190.149 133.8 188.412 132.204V132.204Z" fill="black"/>
<path opacity="0.2" d="M249.29 114.821C249.29 114.821 256.522 122.973 255.206 138.84C255.206 138.84 259.806 131.083 267.506 129.074C267.49 129.053 256.486 119.066 249.29 114.821Z" fill="black"/>
<path d="M155.3 156.706C155.3 156.706 176.672 131.788 182.29 128.143C182.29 128.143 187.522 130.168 191.814 136.444C191.814 136.444 178.039 148.035 167.559 159.574L155.3 156.706Z" fill="#F9B499"/>
<path d="M165.235 214.247C165.235 214.247 148.032 206.517 139.181 180.925C139.181 180.925 143.293 167.222 153.31 161.393C153.31 161.393 188.005 169.725 199.684 172.121C199.684 172.121 225.024 179.83 251.695 172.383C251.695 172.383 292.944 161.856 297.724 161.393C297.724 161.393 313.843 183.696 312.075 187.844C312.075 187.844 302.581 202.811 279.179 210.541C279.179 210.541 284.504 186.656 264.607 176.484C264.607 176.484 280.402 171.622 287.387 168.584C287.387 168.584 246.298 196.679 199.761 183.166C199.761 183.166 179.108 179.815 162.706 167.674C162.706 167.674 180.876 175.384 187.687 181.239C187.682 181.192 166.885 188.985 165.235 214.247Z" fill="#2F2E41"/>
<path d="M175.556 206.913C175.556 206.913 170.416 213.281 165.235 214.247C165.235 214.247 165.991 188.887 187.682 181.192L182.794 177.728C182.794 177.728 204.464 186.553 224.356 186.507C224.356 186.507 245.604 186.898 264.293 179.491L264.602 176.438C264.602 176.438 273.134 179.707 277.575 190.645C279.925 196.988 280.478 203.857 279.174 210.495C279.174 210.495 272.122 203.931 270.723 200.313L275.226 198.668C275.226 198.668 274.784 187.124 265.527 179.769L217.828 205.443L183.811 185.243C183.811 185.243 174.924 193.369 172.801 205.443L175.556 206.913Z" fill="#2F2E41"/>
<path opacity="0.2" d="M175.556 206.913C175.556 206.913 170.416 213.281 165.235 214.247C165.235 214.247 165.991 188.887 187.682 181.192L182.794 177.728C182.794 177.728 204.464 186.553 224.356 186.507C224.356 186.507 245.604 186.898 264.293 179.491L264.602 176.438C264.602 176.438 273.134 179.707 277.575 190.645C279.925 196.988 280.478 203.857 279.174 210.495C279.174 210.495 272.122 203.931 270.723 200.313L275.226 198.668C275.226 198.668 274.784 187.124 265.527 179.769L217.828 205.443L183.811 185.243C183.811 185.243 174.924 193.369 172.801 205.443L175.556 206.913Z" fill="black"/>
<path d="M242.145 209.637C242.145 209.637 262.222 204.019 270.723 200.313L275.226 198.668C275.226 198.668 274.599 186.245 265.527 179.769L217.355 205.556L225.692 210.608C225.692 210.608 226.638 210.809 229.902 208.552C229.902 208.552 232.924 205.15 238.007 208.105L242.145 209.637Z" fill="#F9B499"/>
<path d="M224.063 206.352C222.546 206.383 220.393 206.101 219.473 204.425L217.139 205.551L225.692 211.364C225.692 211.364 227.044 211.364 229.902 209.061C229.902 209.061 232.873 205.304 238.007 208.547L241.508 209.997L243.749 209.164C243.749 209.164 234.466 202.657 226.468 205.833C225.704 206.15 224.889 206.326 224.063 206.352Z" fill="#F7A78D"/>
<path d="M189.003 212.469L180.1 218.447C180.018 218.502 179.951 218.578 179.906 218.667C179.862 218.756 179.841 218.855 179.846 218.955C179.851 219.054 179.882 219.15 179.936 219.234C179.989 219.318 180.064 219.387 180.152 219.433L185.903 222.517C186.022 222.584 186.161 222.605 186.294 222.574L207.419 218.066C207.419 218.066 195.515 215.008 189.003 212.469Z" fill="#F9B499"/>
<path d="M200.516 219.526C197.761 218.668 194.862 217.676 191.907 216.529C189.974 215.784 188.119 215.018 186.345 214.247L189.003 212.469C189.003 212.469 201.745 216.786 207.419 218.051L200.516 219.526Z" fill="#F7A78D"/>
<path d="M223.497 97.7664C236.442 97.7664 246.936 85.4503 246.936 70.2576C246.936 55.0649 236.442 42.7487 223.497 42.7487C210.553 42.7487 200.059 55.0649 200.059 70.2576C200.059 85.4503 210.553 97.7664 223.497 97.7664Z" fill="#F9B499"/>
<path d="M246.38 83.5802C249.344 83.5802 251.747 81.1778 251.747 78.2142C251.747 75.2506 249.344 72.8481 246.38 72.8481C243.417 72.8481 241.014 75.2506 241.014 78.2142C241.014 81.1778 243.417 83.5802 246.38 83.5802Z" fill="#F9B499"/>
<path d="M199.02 83.5802C201.984 83.5802 204.387 81.1778 204.387 78.2142C204.387 75.2506 201.984 72.8481 199.02 72.8481C196.057 72.8481 193.654 75.2506 193.654 78.2142C193.654 81.1778 196.057 83.5802 199.02 83.5802Z" fill="#F9B499"/>
<path d="M214.178 50.474C214.178 50.474 227.733 74.8115 247.732 71.671C247.732 71.671 248.992 49.4152 228.524 42.8875C228.524 42.8875 210.323 37.6756 201.513 58.7338C201.513 58.7338 199.396 64.5985 199.344 68.3763C199.344 68.3609 207.27 67.4306 214.178 50.474Z" fill="#2F2E41"/>
<path d="M251.896 144.946C251.896 144.946 256.815 131.32 267.49 129.048C267.49 129.053 269.007 142.201 251.896 144.946Z" fill="#0071F2"/>
<path d="M255.612 138.218C255.612 138.218 269.916 147.377 281.158 160.437L292.599 156.896C292.599 156.896 273.448 135.905 264.597 130.04C264.597 130.04 258.305 133.638 255.612 138.218Z" fill="#F9B499"/>
<path d="M157.089 154.634C157.089 154.634 165.523 151.849 170.555 156.367L167.564 159.579C167.564 159.579 158.353 154.367 155.305 156.372L157.089 154.634Z" fill="#F7A78D"/>
<path d="M145.539 164.477C144.855 163.449 144.629 162.036 146.449 160.463C146.449 160.463 164.521 149.428 167.559 159.605C167.559 159.605 173.29 158.844 173.84 162.488C173.84 162.488 175.305 166.744 167.559 164.616C167.559 164.616 161.992 167.613 148.644 166.276C148.026 166.222 147.428 166.033 146.891 165.722C146.355 165.411 145.893 164.986 145.539 164.477V164.477Z" fill="#F9B499"/>
<path d="M279.801 158.895C279.801 158.895 283.214 153.355 290.554 154.712L292.096 156.397L281.158 160.437L279.801 158.895Z" fill="#F7A78D"/>
<path d="M283.99 165.094C283.99 165.094 290.065 167.731 300.798 166.009C301.362 166.065 301.93 165.933 302.412 165.633C302.893 165.332 303.262 164.881 303.46 164.349C303.717 163.748 303.762 163.078 303.587 162.448C303.412 161.819 303.028 161.267 302.499 160.885C299.77 158.86 293.396 155.03 285.614 156.387C285.614 156.387 282.067 157.097 281.158 160.438C281.158 160.438 277.411 159.224 277.411 163.172C277.411 163.172 277.21 166.718 283.99 165.094Z" fill="#F9B499"/>
<path d="M226.617 210.475L183.811 185.243C183.811 185.243 174.934 192.87 172.801 205.443C172.801 205.443 197.324 218.806 229.218 221.69C229.218 221.69 255.494 225.642 259.893 224.578C259.893 224.578 263.964 220.708 264.977 218.534C264.999 218.481 265.011 218.425 265.011 218.368C265.01 218.311 264.999 218.254 264.976 218.202C264.953 218.15 264.92 218.102 264.879 218.063C264.838 218.024 264.789 217.993 264.735 217.974L237.57 207.946C237.57 207.946 233.546 205.443 229.902 208.557C229.902 208.557 227.316 210.901 226.617 210.475Z" fill="#F9B499"/>
</svg>
